<?xml version="1.0" encoding="UTF-8"?><svg xmlns="http://www.w3.org/2000/svg" viewBox="0 0 32.21 37"><g id="Layer_2"><rect x=".21" y="1" width="32" height="32" style="fill:#2e3192;"/></g><g id="Layer_1"><path d="m4.03,7.38c.02,1.02-.5,1.84-1.32,1.84-.73,0-1.25-.82-1.25-1.84s.54-1.87,1.3-1.87,1.27.82,1.27,1.87ZM1.72,28.49V12.01h2.07v16.48H1.72Z" style="fill:#fff;"/><path d="m5.63,25.43c.61.58,1.7,1.19,2.73,1.19,1.51,0,2.22-1.09,2.22-2.45,0-1.43-.59-2.21-2.12-3.03-2.05-1.05-3.02-2.69-3.02-4.66,0-2.66,1.49-4.83,3.94-4.83,1.16,0,2.17.48,2.81,1.02l-.52,2.18c-.45-.41-1.27-.95-2.33-.95-1.23,0-1.91,1.02-1.91,2.25,0,1.36.68,1.97,2.17,2.79,1.98,1.09,2.99,2.52,2.99,4.97,0,2.89-1.56,4.94-4.27,4.94-1.25,0-2.4-.44-3.21-1.12l.52-2.28Z" style="fill:#fff;"/><path d="m13.93,4.32h2.07v24.17h-2.07V4.32Z" style="fill:#fff;"/><path d="m18.25,5.85c1.25-.27,2.73-.48,4.36-.48,2.95,0,5.04.99,6.44,2.86,1.41,1.87,2.24,4.53,2.24,8.24s-.8,6.81-2.29,8.92c-1.49,2.14-3.94,3.3-7.03,3.3-1.46,0-2.69-.1-3.72-.27V5.85Zm2.05,20.29c.52.14,1.27.17,2.08.17,4.38,0,6.77-3.54,6.77-9.74.02-5.41-2.1-8.85-6.44-8.85-1.06,0-1.86.14-2.41.31v18.11Z" style="fill:#fff;"/></g></svg>